<svg xmlns="http://www.w3.org/2000/svg" width="512" height="512" viewBox="0 0 512 512" version="1.1">
	<path d="M 0 256.002 L 0 512.004 256.250 511.752 L 512.500 511.500 512.752 255.750 L 513.004 0 256.502 0 L 0 0 0 256.002 M 0.492 256.500 C 0.492 397.300, 0.608 454.751, 0.750 384.170 C 0.892 313.588, 0.892 198.388, 0.750 128.170 C 0.608 57.951, 0.492 115.700, 0.492 256.500 M 233 29.090 C 205.637 32.609, 171.838 44.695, 146.412 60.053 C 126.830 71.881, 104.601 90.932, 90.944 107.592 C 68.798 134.606, 51.006 173.217, 44.595 208.178 C 32.174 275.906, 47.516 337.146, 90.898 393 C 99.165 403.644, 116.571 420.995, 126.411 428.400 C 156.708 451.203, 194.801 466.089, 233.124 470.101 C 248.755 471.738, 277.047 470.730, 293 467.967 C 343.930 459.149, 388.194 434.201, 416.851 398.162 C 460.163 343.694, 476.539 276.893, 463.471 208 C 456.659 172.090, 438.662 133.766, 415.669 106.204 C 407.117 95.953, 388.339 77.890, 378.796 70.734 C 354.499 52.515, 326.627 39.690, 294.963 32.158 C 279.957 28.588, 248.868 27.049, 233 29.090 M 236 43.020 C 214.015 46.071, 182.562 57.544, 157.901 71.507 C 105.143 101.379, 67.941 157.234, 57.335 222.500 C 54.637 239.097, 54.885 269.375, 57.856 286.213 C 59.089 293.205, 61.232 302.835, 62.617 307.612 C 67.112 323.119, 76.211 344.188, 82.844 354.447 C 85.021 357.815, 85.556 360.041, 86.011 367.627 C 86.698 379.107, 87.569 380.466, 106.500 399.619 C 128.840 422.221, 144.486 432.715, 172.588 443.944 C 197.936 454.073, 215.125 458.222, 239.838 460.175 C 285.222 463.763, 335.847 451.111, 372.332 427.064 C 386.231 417.904, 399.583 406.495, 409.688 395.146 C 422.830 380.384, 423.611 378.987, 424.460 368.710 C 425.127 360.641, 425.672 358.959, 431.110 348.210 C 441.859 326.965, 447.669 309.222, 451.648 285.500 C 453.984 271.572, 453.975 241.518, 451.630 225.550 C 441.741 158.197, 403.620 100.164, 349.500 70.071 C 338.929 64.194, 312.297 52.213, 303 49.153 C 288.450 44.363, 279.173 42.913, 260.500 42.508 C 250.600 42.294, 239.575 42.524, 236 43.020 M 239.867 55.075 C 225.561 56.592, 212.163 60.834, 197 68.648 C 184.025 75.334, 174.408 82.324, 170.608 87.828 C 166.775 93.380, 160.753 108.512, 157.996 119.517 C 154.896 131.890, 155.474 149.712, 159.361 161.633 C 163.049 172.943, 163.542 173.175, 170.648 166.950 C 189.141 150.748, 233.409 140.537, 270.500 143.917 C 298.717 146.488, 326.632 155.882, 339.369 167.093 C 341.810 169.242, 344.474 171, 345.290 171 C 347.178 171, 349.842 165.415, 352.173 156.568 C 356.245 141.117, 353.873 121.818, 345.424 101.652 C 338.752 85.724, 334.204 80.841, 317 71.130 C 292.651 57.386, 267.481 52.147, 239.867 55.075 M 122.245 111.250 C 86.631 145.980, 65.592 194.281, 63.333 246.500 C 61.835 281.119, 71.583 318.711, 90.236 350.250 C 92.431 353.962, 94.833 357, 95.572 357 C 96.379 357, 97.759 354.105, 99.027 349.750 C 102.607 337.461, 107.258 331.950, 120.250 324.602 C 124.889 321.979, 125 321.803, 125 317.093 C 125 313.706, 125.626 311.474, 127.102 309.598 C 130.072 305.822, 139.518 301.384, 146 300.719 C 149.025 300.409, 153.204 299.432, 155.286 298.549 L 159.071 296.943 155.112 292.222 C 149.692 285.757, 147.544 279.952, 147.520 271.703 C 147.502 265.447, 147.378 265.056, 145.971 266.791 C 145.130 267.828, 142.283 270.324, 139.644 272.338 C 133.474 277.048, 129.113 277.267, 124.923 273.077 C 120.415 268.569, 120.831 263.128, 126.631 250.719 L 131.263 240.811 130.501 231.156 C 129.519 218.692, 129.471 211.820, 130.352 209.524 C 131.026 207.768, 131.144 207.777, 132.951 209.717 C 137.189 214.266, 146.935 213.081, 150.541 207.577 C 153.406 203.205, 152.108 189.452, 147.089 171 C 144.770 162.475, 141.957 152.941, 140.838 149.813 C 139.719 146.686, 139.072 143.693, 139.399 143.163 C 140.607 141.209, 143.004 116.360, 142.388 112.179 C 142.038 109.803, 140.643 106.540, 139.287 104.929 C 135.154 100.018, 132.909 100.850, 122.245 111.250 M 370.649 105.005 C 366.169 110.330, 366.091 115.604, 370.197 135.830 C 372.117 145.288, 372.165 146.430, 370.766 149.364 C 369.926 151.127, 366.893 160.204, 364.027 169.535 C 355.747 196.489, 355.939 207.987, 364.728 211.660 C 368.764 213.346, 374.103 212.785, 376.022 210.474 C 377.621 208.547, 379.631 208.597, 380.393 210.582 C 381.330 213.025, 381.112 220.130, 379.980 224.007 C 379.419 225.928, 378.935 230.744, 378.905 234.709 C 378.858 240.979, 379.342 242.998, 382.621 250.209 C 385.243 255.974, 386.515 260.332, 386.797 264.512 C 387.167 270, 386.964 270.763, 384.465 273.262 C 379.309 278.418, 372.042 276.320, 364.500 267.498 L 361.500 263.988 361.829 271.483 C 362.103 277.744, 361.759 279.843, 359.735 284.238 C 358.402 287.132, 355.892 291.010, 354.156 292.856 C 352.420 294.701, 351 296.377, 351 296.580 C 351 297.901, 357.733 300, 361.972 300 C 368.219 300, 378.190 304.331, 382.476 308.905 C 384.740 311.321, 385.577 313.328, 385.976 317.291 L 386.500 322.500 393.183 326.013 C 396.859 327.945, 401.041 330.630, 402.477 331.978 C 405.968 335.258, 410.749 345.383, 411.561 351.218 C 412.317 356.651, 414.202 358.907, 416.437 357.052 C 419.230 354.734, 430.972 329.320, 435.404 316 C 447.516 279.600, 448.760 246.575, 439.493 207.500 C 431.227 172.648, 416.249 143.186, 394.204 118.418 C 379.091 101.437, 375.413 99.343, 370.649 105.005 M 232 160.010 C 224.399 161.036, 212.901 163.903, 211.583 165.101 C 211.044 165.590, 211.251 166.109, 212.083 166.357 C 222.381 169.427, 228.683 173.552, 231.551 179.099 C 233.588 183.039, 233.430 183.186, 229.596 180.924 C 227.723 179.819, 224.758 178.504, 223.005 178.002 C 220.209 177.200, 219.906 177.297, 220.522 178.794 C 225.450 190.766, 225.001 207.047, 219.438 218.094 C 216.839 223.255, 213.939 225.546, 208.777 226.514 C 202.150 227.757, 195.649 222.609, 191.081 212.500 C 189.156 208.242, 188.453 190.024, 189.953 183.318 C 190.627 180.308, 190.985 177.652, 190.749 177.415 C 190.513 177.179, 188.448 178.342, 186.160 179.999 C 183.872 181.657, 182.002 182.672, 182.004 182.256 C 182.015 180.077, 186.547 174.604, 190.976 171.422 C 193.739 169.437, 196 167.646, 196 167.442 C 196 166.631, 186.739 171.107, 181.773 174.319 C 173.085 179.937, 171.617 182.082, 171.182 189.799 C 170.664 199.007, 173.092 211.989, 178.439 228.596 C 182.770 242.046, 185.563 247, 188.814 247 C 189.467 247, 191.775 245.225, 193.945 243.055 C 197.901 239.099, 205.366 236, 210.938 236 C 217.555 236, 224.180 239.828, 226.081 244.750 L 226.950 247 254.725 246.978 L 282.500 246.957 284 243.728 C 286.112 239.183, 291.934 236.487, 299.500 236.551 C 306.619 236.610, 310.964 238.626, 316.118 244.258 C 319.276 247.708, 320.004 248.068, 321.837 247.087 C 325.037 245.375, 328.436 238.668, 332.433 226.181 C 336.491 213.505, 338.500 204.634, 339.509 194.946 C 340.689 183.603, 337.839 179.958, 321.275 171.632 C 317.301 169.634, 313.844 168, 313.593 168 C 313.341 168, 314.649 170.249, 316.499 172.999 C 324.862 185.425, 324.666 205.657, 316.047 219.710 C 313.809 223.359, 307.431 227.002, 303.290 226.996 C 290.481 226.979, 282.519 203.110, 288.614 183 C 289.365 180.525, 289.983 178.412, 289.989 178.304 C 290.023 177.692, 279.278 181.427, 277.328 182.705 C 274.434 184.601, 274.308 183.269, 276.903 178.210 C 280.123 171.930, 285.825 167.874, 293.440 166.445 L 297.311 165.719 294.708 164.355 C 288.778 161.248, 278.457 159.863, 258.500 159.498 C 247.500 159.297, 235.575 159.527, 232 160.010 M 206.066 189.876 C 202.900 195.792, 206.820 202.159, 212.337 200.062 C 218.034 197.896, 216.461 188.796, 210.285 188.192 C 207.959 187.964, 206.853 188.405, 206.066 189.876 M 303.557 190.223 C 301.408 193.291, 301.605 195.429, 304.329 198.596 C 307.304 202.055, 311.182 201.389, 312.952 197.115 C 315.730 190.409, 307.602 184.447, 303.557 190.223 M 159.797 221.726 C 155.910 226.157, 154.584 230.449, 154.611 238.500 C 154.644 247.887, 155.911 252.920, 159.724 258.802 C 162.926 263.743, 166.183 265.050, 168.981 262.517 C 171.515 260.224, 172.943 253.077, 171.940 247.707 C 171.068 243.042, 163.432 222.032, 162.138 220.738 C 161.706 220.306, 160.653 220.751, 159.797 221.726 M 344.486 226.750 C 336.567 246.351, 335.234 254.592, 338.989 260.750 C 342.581 266.641, 347.134 264.318, 351.747 254.242 C 354.782 247.612, 355.795 237.213, 354.071 230.369 C 352.882 225.645, 349.597 220, 348.038 220 C 347.584 220, 345.986 223.037, 344.486 226.750 M 207.223 251.557 C 205.080 253.058, 205 253.700, 205 269.492 C 205 286.946, 205.555 289.817, 209.814 294.376 C 214.016 298.875, 219.540 300.948, 227.500 301.013 C 231.634 301.047, 235.524 301.656, 237 302.500 C 240.452 304.473, 240.541 304.442, 242.877 300.485 C 245.293 296.388, 248.675 294.820, 255.150 294.790 C 260.712 294.765, 265.535 297.328, 267.260 301.225 C 268.626 304.312, 269.195 304.501, 272.223 302.881 C 273.374 302.265, 278.750 301.413, 284.171 300.987 C 295.003 300.135, 297.254 299.154, 301.683 293.352 C 304.497 289.667, 304.500 289.644, 304.814 271.731 C 305.092 255.901, 304.927 253.577, 303.409 251.900 C 301.076 249.322, 297.680 249.512, 294.306 252.410 C 291.562 254.767, 291.489 255.101, 291 267.660 L 290.500 280.500 257.500 281.340 C 234.626 281.922, 223.656 281.853, 221.750 281.115 L 219 280.050 219 268.459 C 219 262.084, 218.537 256.003, 217.970 254.945 C 217.006 253.143, 212.113 250, 210.272 250 C 209.817 250, 208.445 250.701, 207.223 251.557 M 229.044 259.917 C 227.425 262.943, 227.763 263.703, 231.017 264.353 C 233.007 264.751, 234.359 265.814, 234.992 267.478 L 235.950 270 254.360 270 L 272.770 270 274.408 267.500 C 275.309 266.125, 276.964 265, 278.086 265 C 279.786 265, 280.074 264.457, 279.813 261.750 L 279.500 258.500 254.794 258.233 C 231.171 257.977, 230.043 258.051, 229.044 259.917 M 193.750 314.666 C 190.061 317.401, 189 318.810, 189 320.976 C 189 323.977, 190.097 324.808, 210.746 337.454 C 215.831 340.568, 220.444 343.960, 220.996 344.992 C 221.548 346.024, 222.014 353.536, 222.031 361.684 L 222.062 376.500 237.879 385.750 C 246.579 390.837, 254.328 394.984, 255.099 394.965 C 255.869 394.945, 263.925 390.550, 273 385.199 L 289.500 375.469 289.777 360.054 C 289.931 351.512, 290.508 344.093, 291.072 343.414 C 291.631 342.739, 297.497 338.943, 304.107 334.977 C 317.201 327.121, 322 323.518, 322 321.546 C 322 319.287, 318.245 315.408, 313.753 313.025 L 309.380 310.705 301.940 316.184 C 297.848 319.197, 289.722 324.859, 283.883 328.765 C 278.043 332.671, 272.980 336.609, 272.633 337.515 C 272.285 338.422, 272 348.127, 272 359.082 L 272 379 255.616 379 L 239.233 379 238.528 372.415 C 238.140 368.793, 238.126 359.680, 238.498 352.165 C 239.028 341.450, 238.885 338.149, 237.837 336.873 C 237.102 335.978, 232.225 332.418, 227 328.963 C 221.775 325.508, 213.860 320.053, 209.410 316.841 C 204.961 313.628, 200.686 311.032, 199.910 311.072 C 199.135 311.112, 196.363 312.729, 193.750 314.666 M 124.251 337.029 C 121.176 338.793, 117.863 341.759, 116.251 344.194 C 113.638 348.141, 113.483 349.045, 113.153 362.220 C 112.962 369.849, 113.093 377.235, 113.444 378.632 C 114.703 383.650, 132.673 400, 136.928 400 C 138.030 400, 139.526 398.146, 141.049 394.895 C 144.041 388.508, 150.107 383.054, 162.065 376 C 174.902 368.427, 177 366.543, 177 362.585 C 177 358.320, 175.322 356.909, 159 347.454 C 132.677 332.206, 132.666 332.203, 124.251 337.029 M 369.823 337.376 C 359.093 343.106, 338.166 355.407, 336.028 357.240 C 333.592 359.331, 333.289 365.146, 335.501 367.358 C 336.327 368.184, 342.289 372.001, 348.751 375.840 C 361.893 383.647, 366.928 388.267, 369.904 395.250 C 372.178 400.584, 373.717 401.080, 378.653 398.070 C 383.718 394.982, 395.658 383.240, 396.980 380.047 C 398.837 375.564, 397.954 350.423, 395.800 346.439 C 393.042 341.341, 387.861 337.036, 382.603 335.475 C 376.256 333.590, 377.167 333.454, 369.823 337.376 M 186.159 370.601 C 182.721 373.009, 181.754 376.476, 183.413 380.447 C 184.468 382.970, 186.504 384.729, 191.657 387.569 C 195.421 389.643, 210.621 398.317, 225.434 406.844 C 240.248 415.371, 253.298 422.515, 254.434 422.719 C 255.615 422.930, 259.930 421.103, 264.500 418.457 C 279.639 409.690, 303.520 396.309, 314.206 390.606 C 328.845 382.793, 329.526 382.112, 329.115 375.702 C 328.947 373.074, 324.111 369, 321.159 369 C 318.835 369, 297.942 380.501, 268.073 398.221 C 261.789 401.949, 256.092 405, 255.414 405 C 254.179 405, 232.242 392.342, 207.091 377.117 C 193.247 368.736, 190.183 367.783, 186.159 370.601 M 158.467 395.163 C 156.485 396.903, 153.552 400.926, 151.948 404.103 L 149.032 409.880 151.678 411.962 C 156.669 415.887, 158.704 415.703, 163.661 410.879 C 170.920 403.815, 172.657 398.810, 169.443 394.223 C 167.157 390.959, 162.833 391.330, 158.467 395.163 M 340.378 394.545 C 337.992 398.188, 339.755 403.229, 345.759 409.933 C 350.269 414.968, 350.786 415.261, 354.035 414.630 C 355.941 414.260, 358.560 413.141, 359.855 412.145 L 362.210 410.333 359.991 405.916 C 353.718 393.435, 344.578 388.135, 340.378 394.545 M 160.783 427.578 C 158.966 431.565, 160.600 433.036, 172.588 438.207 C 218.810 458.147, 275.218 460.143, 325.281 443.610 C 346.977 436.446, 352.213 433.325, 350.412 428.632 C 349.209 425.495, 345.452 425.686, 337.325 429.297 C 323.474 435.451, 304.442 440.899, 289.500 442.986 C 285.100 443.601, 273.400 444.363, 263.500 444.680 C 228.420 445.804, 203.818 441.478, 174.630 429.055 C 169.389 426.825, 164.394 425, 163.530 425 C 162.665 425, 161.429 426.160, 160.783 427.578" stroke="none" fill="black" fill-rule="evenodd"/>
</svg>